<?xml version="1.0" encoding="utf-8"?>
<?xml-stylesheet type="text/xsl" href="rss1.xsl"?>
<rss version="2.0" xmlns:atom="http://www.w3.org/2005/Atom" xmlns:content="http://purl.org/rss/1.0/modules/content/" xmlns:dc="http://purl.org/dc/elements/1.1/" xmlns:media="http://search.yahoo.com/mrss/">
<channel>
 <title>Getty</title>
 <link>http://www.gettyimg.com/</link>
 <atom:link href="http://www.gettyimg.com/" rel="self" type="application/rss+xml" />

 
                <item>
                <title><![CDATA[【Interviews / TV shows / Others】WEB-RiP - MTV Diary - S01E08 - Avril Lavigne (SD) (PMTP) (WEB-DL) (2000)]]></title>
                <link><![CDATA[https://sharemania.us/threads/mtv-diary-s01e08-avril-lavigne-sd-pmtp-web-dl-2000.221969/]]></link>
                <description><![CDATA[<article>
<blockquote class="messageText SelectQuoteContainer ugc baseHtml">
<div style="text-align: center"><b>MTV Diary - S01E08 - Avril Lavigne (SD) (PMTP) (WEB-DL) (2000)<br>
<img src="https://i.postimg.cc/bdX5m1fg/MTV-Diary-S01-E08-Avril-Lavigne-SD-PMTP-WEB-DL-2000.jpg" class="bbCodeImage LbImage" alt="[​IMG]" data-url="https://i.postimg.cc/bdX5m1fg/MTV-Diary-S01-E08-Avril-Lavigne-SD-PMTP-WEB-DL-2000.jpg" style=""></b>​</div><div style="text-align: left">​</div>
<div class="ToggleTriggerAnchor bbCodeSpoilerContainer">
<button type="button" class="button bbCodeSpoilerButton ToggleTrigger Tooltip JsOnly" data-target="> .SpoilerTarget"><span>Spoiler: <span class="SpoilerTitle">Media Info:</span></span></button>
<div class="SpoilerTarget bbCodeSpoilerText">General<br>
Complete name : C:\Users\Maverick\Desktop\MTV Diary - S01E08 - Avril Lavigne (SD) (PMTP) (WEB-DL) (2000).mkv<br>
Format : Matroska<br>
Format version : Version 4<br>
File size : 693 MiB<br>
Duration : 20 min 58 s<br>
Overall bit rate : 4 619 kb/s<br>
Movie name : MTV Diary - S01E08 - Avril Lavigne (SD) (PMTP) (WEB-DL) (2000)<br>
Encoded date : UTC 2023-06-01 17:50:41<br>
Writing application : mkvmerge v74.0.0 ('You Oughta Know') 64-bit<br>
Writing library : libebml v1.4.4 + libmatroska v1.7.1<br>
Comment : Hang out with Avril as she starts her North American tour. Air Date: Feb 15, 2000<br>
<br>
Video<br>
ID : 1<br>
Format : AVC<br>
Format/Info : Advanced Video Codec<br>
Format profile : High@L4<br>
Format settings : CABAC / 5 Ref Frames<br>
Format settings, CABAC : Yes<br>
Format settings, Reference fra : 5 frames<br>
Codec ID : V_MPEG4/ISO/AVC<br>
Duration : 20 min 58 s<br>
Bit rate : 4 500 kb/s<br>
Width : 720 pixels<br>
Height : 540 pixels<br>
Display aspect ratio : 4:3<br>
Frame rate mode : Constant<br>
Frame rate : 29.970 (30000/1001) FPS<br>
Color space : YUV<br>
Chroma subsampling : 4:2:0<br>
Bit depth : 8 bits<br>
Scan type : Progressive<br>
Bits/(Pixel*Frame) : 0.386<br>
Stream size : 674 MiB (97%)<br>
Title : MTV Diary - S01E08 - Avril Lavigne (SD) (PMTP) (WEB-DL) (2000)<br>
Writing library : x264 core 161 r3015 4c2aafd<br>
Encoding settings : cabac=1 / ref=5 / deblock=1:0:0 / analyse=0x3:0x113 / me=hex / subme=8 / psy=1 / psy_rd=1.00:0.00 / mixed_ref=1 / me_range=16 / chroma_me=1 / trellis=2 / 8x8dct=1 / cqm=0 / deadzone=21,11 / fast_pskip=1 / chroma_qp_offset=-2 / threads=6 / lookahead_threads=1 / sliced_threads=0 / nr=0 / decimate=1 / interlaced=0 / bluray_compat=0 / stitchable=1 / constrained_intra=0 / bframes=3 / b_pyramid=2 / b_adapt=1 / b_bias=0 / direct=3 / weightb=1 / open_gop=0 / weightp=2 / keyint=60 / keyint_min=6 / scenecut=0 / intra_refresh=0 / rc_lookahead=50 / rc=2pass / mbtree=1 / bitrate=4500 / ratetol=1.0 / qcomp=0.60 / qpmin=0 / qpmax=69 / qpstep=4 / cplxblur=20.0 / qblur=0.5 / vbv_maxrate=5400 / vbv_bufsize=4500 / nal_hrd=none / filler=0 / ip_ratio=1.40 / aq=1:1.00<br>
Language : English<br>
Default : Yes<br>
Forced : No<br>
<br>
Audio<br>
ID : 2<br>
Format : AAC LC<br>
Format/Info : Advanced Audio Codec Low Complexity<br>
Codec ID : A_AAC-2<br>
Duration : 20 min 58 s<br>
Bit rate : 125 kb/s<br>
Channel(s) : 2 channels<br>
Channel layout : L R<br>
Sampling rate : 48.0 kHz<br>
Frame rate : 46.875 FPS (1024 SPF)<br>
Compression mode : Lossy<br>
Stream size : 18.7 MiB (3%)<br>
Title : Stereo<br>
Language : English<br>
Default : Yes<br>
Forced : No</div>
</div><div style="text-align: left">
<div class="ToggleTriggerAnchor bbCodeSpoilerContainer">
<button type="button" class="button bbCodeSpoilerButton ToggleTrigger Tooltip JsOnly" data-target="> .SpoilerTarget"><span>Spoiler: <span class="SpoilerTitle">Download:</span></span></button>
<div class="SpoilerTarget bbCodeSpoilerText">
<div class="bbCodeBlock bbCodeVfcHH HiddenContent">
<div class="attribution type">Hidden Content:</div>
<blockquote>You must either reply or click 'Like' to see the hidden information contained here.</blockquote>
</div></div>
</div></div><div style="text-align: center">Enjoy!!​</div>
<div class="messageTextEndMarker">&nbsp;</div>
</blockquote>
</article>]]></description>
                <author><![CDATA[Maverick]]></author>
                </item>

                
                <item>
                <title><![CDATA[【Albums (lossless)】FLAC - Robin McKelle - Impressions of Ella [Hi-Res 24/96]]]></title>
                <link><![CDATA[https://sharemania.us/threads/robin-mckelle-impressions-of-ella-hi-res-24-96.221968/]]></link>
                <description><![CDATA[<article>
<blockquote class="messageText SelectQuoteContainer ugc baseHtml">
<img src="https://static.qobuz.com/images/covers/qc/qh/gh82gf5nkqhqc_600.jpg" class="bbCodeImage LbImage" alt="[​IMG]" data-url="https://static.qobuz.com/images/covers/qc/qh/gh82gf5nkqhqc_600.jpg" style=""><br>
<br>
Artist : <span style="font-size: 15px"><b>Robin McKelle</b><br>
Album : <b>Impressions of Ella</b><br>
Released : </span><b><span style="font-size: 15px">02/06/2023</span><br>
<span style="font-size: 18px"><br>
</span></b>
<div class="bbCodeBlock bbCodeVfcHH HiddenContent">
<div class="attribution type">Hidden Content:</div>
<blockquote>You must either reply or click 'Like' to see the hidden information contained here.</blockquote>
</div><b><span style="font-size: 18px"><br>
<b>Don’t forget to click on Like button and say Thanks <img src="styles/default/xenforo/smilies/big_smile-48.png" class="mceSmilie" alt=":)" title="Smile    :)"></b></span></b>
<div class="messageTextEndMarker">&nbsp;</div>
</blockquote>
</article>]]></description>
                <author><![CDATA[pinbfv]]></author>
                </item>

                </channel></rss>